<svg width="278" height="56" xmlns="http://www.w3.org/2000/svg">
    <g fill="none" fill-rule="evenodd">
        <path d="M99 3.608A3.594 3.594 0 0 1 102.59.02h71.907a3.596 3.596 0 0 1 3.59 3.588v47.83a3.594 3.594 0 0 1-3.59 3.588H102.59A3.596 3.596 0 0 1 99 51.438V3.608z" fill="#262626"/>
        <path fill="#FF5F00" d="M132.142 17.388h12.586v20.23h-12.586z"/>
        <path d="M133.438 27.505c-.003-3.947 1.838-7.676 4.993-10.113-5.36-4.146-13.056-3.542-17.681 1.387a12.715 12.715 0 0 0 0 17.456c4.625 4.928 12.322 5.532 17.681 1.387-3.156-2.438-4.997-6.169-4.993-10.117z" fill="#EB001B"/>
        <path d="M158.36 35.994v-.842h.2v-.175h-.477v.175h.188v.842h.088zm.923 0v-1.017h-.144l-.168.727-.168-.727h-.144v1.017h.104v-.77l.156.661h.108l.156-.66v.77h.1z" fill="#F79E1B" fill-rule="nonzero"/>
        <path d="M159.583 27.505c0 4.926-2.858 9.419-7.36 11.571-4.502 2.153-9.857 1.587-13.792-1.458 3.154-2.439 4.995-6.168 4.995-10.115s-1.841-7.676-4.995-10.115c3.935-3.044 9.29-3.61 13.792-1.458 4.502 2.153 7.36 6.646 7.36 11.571v.004z" fill="#F79E1B"/>
        <g>
            <path d="M198.088 3.608a3.594 3.594 0 0 1 3.59-3.588h71.907a3.596 3.596 0 0 1 3.59 3.588v47.83a3.594 3.594 0 0 1-3.59 3.588h-71.907a3.596 3.596 0 0 1-3.59-3.588V3.608z" fill="#0742A6"/>
            <g fill="#FFF">
                <path d="M234.063 35.587h-4.241l2.653-15.942h4.241zM249.44 20.035c-.837-.323-2.164-.679-3.805-.679-4.189 0-7.138 2.17-7.156 5.274-.035 2.29 2.112 3.562 3.717 4.325 1.641.78 2.199 1.29 2.199 1.985-.017 1.068-1.326 1.56-2.547 1.56-1.694 0-2.601-.253-3.98-.848l-.559-.254-.593 3.578c.995.44 2.828.832 4.73.849 4.451 0 7.349-2.137 7.383-5.445.017-1.814-1.117-3.205-3.56-4.341-1.484-.73-2.393-1.222-2.393-1.968.018-.679.769-1.373 2.444-1.373a7.385 7.385 0 0 1 3.16.61l.383.17.577-3.443z"/>
                <path d="M255.077 29.94c.35-.916 1.693-4.461 1.693-4.461-.017.034.35-.933.559-1.526l.296 1.373s.803 3.816.978 4.613h-3.526zm5.236-10.295h-3.281c-1.012 0-1.78.288-2.217 1.323l-6.3 14.619h4.45l.89-2.391h5.446c.122.56.506 2.39.506 2.39h3.928l-3.422-15.941z" fill-rule="nonzero"/>
                <path d="m226.279 19.645-4.154 10.871-.454-2.205c-.768-2.544-3.176-5.308-5.864-6.682l3.805 13.941h4.485l6.667-15.925h-4.485z"/>
                <path d="M218.268 19.645h-6.825l-.07.322c5.324 1.323 8.85 4.512 10.298 8.345l-1.483-7.327c-.245-1.018-.995-1.306-1.92-1.34z"/>
            </g>
        </g>
        <g>
            <path d="M22.472 14.552h6.065c1.93 0 3.508 1.594 3.508 3.543v10.184c0 1.948-1.578 3.543-3.508 3.543h-6.065c-1.93 0-3.508-1.595-3.508-3.543V18.095c0-1.949 1.578-3.543 3.508-3.543" fill="#FFFFFE"/>
            <path d="M22.472 14.552h6.065c1.93 0 3.508 1.594 3.508 3.543v10.184c0 1.948-1.578 3.543-3.508 3.543h-6.065c-1.93 0-3.508-1.595-3.508-3.543V18.095c0-1.949 1.578-3.543 3.508-3.543zm8.258 32.473H20.28c-1.528 0-2.778-1.263-2.778-2.805V13.298c0-1.543 1.25-2.805 2.777-2.805h10.45c.125 0 .247.009.366.025V8.242c0-.67.543-1.217 1.206-1.217.663 0 1.206.548 1.206 1.217v3.838c0 .17-.035.333-.098.48.064.235.098.483.098.738V44.22c0 1.542-1.25 2.805-2.777 2.805z" fill="#CDDE83"/>
            <path d="M39.545 16.88c1.647-.237 2.91.225 2.997 2.842-.055 2.337-1.285 2.929-2.997 2.805V16.88zm-3.582-1.68 6.67-.026c2.43.312 3.554 2.15 3.452 4.824-.185 2.695-1.698 4.012-4.224 4.243l-2.421-.049.068 7.392h-3.545V15.201zM52.28 14.997l4.222-.02-.032 1.83-3.307-.014c-1.908.358-1.481 2.414-1.574 3.9l4.45-.085.015 2.246-4.31-.046-.022 5.44c.17 1.41.904 2.119 2.146 2.201l2.368-.026.722.016-.023 1.698-.74.028-4.5-.048c-1.551-.053-2.804-.83-3.38-3.245l-.11-10.553c.063-2.163 1.477-3.224 4.074-3.322M58.052 19.629c-.266-3.535 1.685-4.334 4.056-4.613 2.777-.166 4.52 1.003 4.86 3.986l-3.277-.009c-.208-1.505-1.367-2.083-2.427-1.367-1.512 1.868 3.206 5.155 4.62 6.374 2.445 1.953 2.031 7.366-1.735 8.37l-2.296.082c-2.333.055-3.721-1.433-4.123-4.191l3.302-.059c.18 1.178.677 1.91 1.734 1.858 1.644-.315 2.097-1.777.927-3.642-2.448-2.1-5.347-4.069-5.64-6.79M0 14.463h3.47l.037 1.088c2.098-.915 3.68-1.562 5.336-.055 2.962-1.413 5.202-1.252 6.313 1.37l.155 14.718h-3.5V17.545c-.26-1.202-1.202-1.407-2.339-1.328v15.367h-3.58V17.545c-.26-1.202-1.202-1.407-2.34-1.328v15.367H0V14.463M72.514 18.177c.119-.965.43-1.353 1.48-1.457 1.065.027 1.444.648 1.516 1.605v2.62h-2.996v-2.768zm-3.6 13.838h3.6v-9.04h2.996v9.04H79V19.1c-.07-2.625-2.068-4.27-4.896-4.28-3.228-.03-5.068 1.516-5.19 4.132v13.063z" fill="#84BF41"/>
            <path d="M21.759 21.443c.6 1.418 1.417 2.07 2.407 2.11-1.544 1.163-3.213 1.871-4.954 2.323-1.093-.07-2.139-.352-3.153-.632 2.564-.511 4.476-1.765 5.7-3.8" fill="#6D2321"/>
            <path d="M21.759 21.443c.6 1.418 1.417 2.07 2.407 2.11-1.544 1.163-3.213 1.871-4.954 2.323-1.093-.07-2.139-.352-3.153-.632 2.564-.511 4.476-1.765 5.7-3.8z" stroke="#C1855A" stroke-width="1.103"/>
            <path d="m28.482 17.79 7.236 3.69c-3.685 4.896-9.899 5.025-16.517 4.391 4.425-1.1 7.488-3.831 9.281-8.081" fill="#D8262C"/>
            <path d="m28.482 17.79 7.236 3.69c-3.685 4.896-9.899 5.025-16.517 4.391 4.425-1.1 7.488-3.831 9.281-8.081z" stroke="#C1855A" stroke-width="1.103"/>
        </g>
    </g>
</svg>
